<?xml version="1.0" standalone="no"?>
<!DOCTYPE svg PUBLIC "-//W3C//DTD SVG 20010904//EN"
 "http://www.w3.org/TR/2001/REC-SVG-20010904/DTD/svg10.dtd">
<svg version="1.0" xmlns="http://www.w3.org/2000/svg"
 width="260.000000pt" height="260.000000pt" viewBox="0 0 260.000000 260.000000"
 preserveAspectRatio="xMidYMid meet">
<metadata>
Created by potrace 1.14, written by Peter Selinger 2001-2017
</metadata>
<g transform="translate(0.000000,260.000000) scale(0.100000,-0.100000)"
fill="#000000" stroke="none">
<path d="M396 2555 c-3 -10 -11 -13 -18 -9 -10 6 -10 5 -1 -7 9 -11 8 -18 -2
-32 -12 -16 -13 -16 -19 -1 -4 9 -4 19 -1 22 3 3 5 0 5 -7 0 -7 5 -9 11 -5 8
4 5 10 -7 17 -26 15 -43 17 -50 6 -3 -5 -10 -9 -16 -9 -6 0 -5 7 3 18 12 15
11 15 -8 -1 -16 -14 -22 -15 -26 -5 -4 11 -6 11 -6 0 -1 -7 -5 -10 -11 -7 -14
9 -54 16 -47 8 4 -3 2 -13 -3 -23 -6 -12 -5 -17 5 -17 7 0 11 6 8 13 -2 6 0
15 6 19 6 3 11 1 11 -5 0 -6 5 -8 10 -5 6 3 10 1 10 -5 0 -7 -7 -10 -15 -6 -8
3 -14 0 -12 -6 1 -7 -7 -12 -18 -12 -11 0 -26 -7 -33 -16 -10 -13 -11 -13 -6
3 3 9 1 17 -4 17 -6 0 -12 -10 -14 -22 -3 -23 -3 -23 -9 -2 -5 17 -1 25 18 33
19 9 23 8 17 -1 -4 -7 -3 -10 1 -5 13 11 16 47 5 47 -6 0 -9 -3 -7 -7 1 -5 -2
-9 -7 -10 -5 -1 -13 -7 -17 -15 -7 -11 -11 -10 -19 2 -7 10 -10 11 -11 3 -1
-7 -2 -19 -3 -25 -1 -7 1 -17 4 -23 4 -5 7 -21 7 -35 1 -14 -1 -19 -4 -12 -3
7 -19 19 -36 28 -24 11 -28 12 -14 1 9 -8 17 -23 17 -33 0 -16 2 -17 10 -4 13
20 13 4 0 -21 -8 -14 -7 -19 2 -19 8 0 6 -5 -4 -11 -11 -6 -15 -16 -11 -27 3
-9 3 -14 -1 -10 -4 3 -9 14 -10 24 -2 10 -8 19 -15 20 -7 2 -7 0 -1 -3 7 -3 7
-10 -2 -21 -8 -9 -8 -13 -2 -9 16 9 25 -18 11 -32 -6 -6 -7 -11 -2 -11 6 0 3
-5 -5 -10 -13 -8 -12 -11 5 -24 11 -8 22 -12 25 -9 3 3 -1 8 -7 10 -7 3 -13 9
-13 14 0 19 16 8 33 -23 11 -20 13 -27 4 -20 -8 7 -17 9 -20 5 -4 -3 -12 -1
-20 5 -10 9 -13 4 -13 -23 0 -19 2 -32 5 -30 2 3 10 0 18 -6 10 -9 13 -8 13 5
0 9 -3 15 -7 14 -5 -2 -9 1 -11 6 -3 11 26 18 32 8 2 -4 0 -17 -5 -30 -7 -18
-14 -22 -31 -17 -13 3 -18 3 -13 -2 23 -19 13 -44 -11 -25 -5 4 2 -4 16 -17
14 -13 20 -21 15 -18 -6 3 -11 -5 -11 -18 0 -15 4 -21 14 -18 11 5 11 7 0 15
-10 8 -10 9 2 5 9 -2 14 -14 13 -31 -1 -15 1 -24 6 -22 4 3 8 -1 8 -8 0 -11
-4 -12 -18 -3 -14 9 -16 14 -6 27 9 12 9 13 -2 3 -7 -6 -21 -9 -30 -5 -9 3 -2
-7 16 -21 24 -21 30 -34 27 -53 -3 -17 -1 -23 7 -19 8 6 8 2 0 -13 -6 -12 -16
-24 -22 -28 -8 -4 -4 -11 11 -19 21 -11 21 -13 5 -29 -12 -11 -21 -14 -29 -7
-8 7 -12 4 -13 -12 -1 -12 1 -17 5 -12 4 6 16 11 27 12 17 1 17 -1 -5 -18 -14
-10 -21 -19 -16 -19 4 0 0 -8 -11 -17 -10 -10 -14 -15 -9 -10 16 12 22 8 23
-13 1 -11 -2 -18 -7 -15 -5 3 -12 1 -15 -5 -4 -6 -1 -9 6 -8 6 2 14 -3 17 -11
3 -9 0 -11 -7 -6 -9 5 -9 2 0 -13 11 -17 10 -25 -6 -49 -15 -23 -16 -26 -2
-14 22 18 24 -5 2 -29 -13 -14 -12 -16 10 -16 14 0 25 4 25 10 0 5 3 6 6 3 4
-4 1 -14 -7 -24 -12 -15 -12 -16 4 -10 23 9 22 0 -2 -13 -17 -9 -19 -7 -16 9
3 14 -1 18 -12 14 -8 -3 -11 -9 -6 -12 17 -13 14 -34 -4 -27 -16 5 -16 4 -3
-6 9 -7 15 -20 15 -28 -1 -8 7 -23 17 -33 18 -17 18 -19 1 -48 -14 -24 -15
-31 -5 -38 11 -7 10 -10 -3 -14 -9 -4 -14 -3 -11 1 2 4 1 14 -3 21 -5 7 -8 -6
-7 -31 1 -24 -2 -49 -7 -55 -6 -8 -4 -15 5 -18 18 -7 18 -63 0 -74 -11 -7 -10
-9 3 -14 11 -5 13 -12 7 -24 -12 -25 -8 -49 7 -45 9 2 10 -2 3 -14 -5 -9 -7
-25 -5 -35 3 -11 0 -19 -8 -19 -7 0 -9 -3 -6 -7 4 -3 2 -12 -3 -19 -8 -9 -4
-17 12 -30 13 -11 24 -30 25 -44 2 -18 0 -21 -7 -10 -5 8 -6 18 -4 22 3 4 1 8
-4 8 -6 0 -13 -7 -16 -16 -9 -24 -7 -31 5 -14 9 12 10 11 6 -8 -6 -24 11 -30
31 -10 9 9 15 9 24 -1 11 -10 10 -11 -4 -6 -12 5 -20 1 -24 -9 -3 -9 -11 -16
-18 -15 -34 4 -38 -1 -21 -27 16 -26 16 -26 -7 -20 -22 7 -22 6 -3 -6 26 -17
32 -43 8 -34 -17 6 -17 5 0 -8 13 -10 14 -15 6 -18 -9 -3 -7 -7 5 -11 11 -5
15 -3 10 5 -4 7 -3 8 4 4 7 -4 12 -2 12 3 0 6 -4 11 -8 11 -4 0 -8 11 -8 25 0
14 4 25 9 25 5 0 7 -6 4 -12 -2 -7 0 -21 5 -31 10 -19 -7 -51 -22 -42 -4 3
-14 -3 -21 -12 -8 -10 -9 -14 -2 -10 7 4 17 0 23 -10 11 -17 11 -17 6 0 -3 10
-2 16 3 12 5 -3 11 -2 14 2 5 10 -1 -12 -10 -34 -6 -16 -5 -16 10 -4 10 7 17
9 17 3 0 -6 -6 -13 -12 -16 -10 -5 -10 -7 0 -12 6 -3 12 -10 12 -16 0 -7 -5
-7 -13 1 -8 6 -17 8 -21 4 -4 -4 -4 0 -1 9 8 21 -9 32 -24 15 -8 -11 -5 -17
15 -27 16 -9 24 -20 21 -31 -3 -9 -1 -23 4 -30 10 -17 -9 -52 -25 -46 -7 3
-13 -1 -13 -9 0 -19 10 -18 42 8 25 19 26 20 15 1 -7 -10 -22 -24 -34 -29 -19
-8 -27 -28 -8 -21 4 1 6 5 5 9 -5 15 23 -3 35 -22 9 -16 10 -20 0 -18 -7 2
-13 -7 -14 -20 -1 -12 3 -22 7 -22 5 0 9 -5 9 -10 0 -6 -8 -5 -20 2 -11 7 -15
15 -9 19 6 4 4 9 -7 13 -9 3 -19 4 -22 1 -3 -3 -1 -5 5 -5 5 0 10 -7 10 -15 0
-16 -8 -19 -23 -7 -5 4 -2 0 6 -8 9 -8 15 -27 15 -42 -1 -19 2 -25 12 -21 8 3
11 9 6 12 -4 3 -9 16 -9 29 -1 12 1 20 5 17 6 -6 7 -10 10 -36 0 -5 7 -7 13
-3 8 5 7 0 -2 -12 -20 -25 -31 -33 -44 -30 -6 2 -8 1 -3 -1 4 -3 5 -8 3 -12
-3 -4 4 -12 15 -19 11 -7 19 -8 19 -2 0 5 -4 10 -10 10 -5 0 -10 5 -10 10 0
19 15 9 33 -22 11 -20 13 -27 4 -20 -8 7 -17 9 -20 5 -4 -3 -13 -1 -20 6 -13
10 -15 -4 -8 -50 1 -4 13 -10 28 -14 15 -3 23 -9 17 -13 -14 -11 -16 -33 -4
-47 7 -9 7 -15 1 -19 -5 -4 -12 -2 -16 4 -3 5 -4 10 0 10 3 0 1 10 -6 21 -6
12 -7 19 -2 16 5 -4 10 0 10 6 0 7 -10 13 -21 14 -12 1 -15 -1 -8 -4 10 -4 10
-8 0 -21 -10 -12 -10 -14 0 -8 8 5 11 1 8 -16 -5 -33 11 -50 36 -37 16 8 19 8
13 -1 -5 -8 -3 -11 6 -8 8 3 13 11 11 17 -1 7 2 10 8 6 7 -4 7 -12 2 -18 -4
-7 -7 -18 -6 -24 1 -7 2 -18 3 -24 0 -5 6 -7 13 -3 7 4 8 3 4 -4 -4 -7 -2 -12
3 -12 10 0 15 14 12 33 -1 5 3 6 8 2 6 -3 7 -13 4 -22 -4 -10 -2 -14 5 -9 6 3
13 2 16 -3 3 -5 19 -7 35 -6 17 1 29 -2 28 -8 -1 -5 3 -11 10 -14 12 -4 12 14
0 34 -4 6 -3 15 3 18 6 4 9 1 8 -5 -2 -7 5 -14 15 -15 13 -3 17 1 13 11 -3 9
-2 12 5 9 6 -4 8 -13 5 -20 -2 -7 1 -19 7 -26 10 -10 9 -11 -3 -2 -12 9 -20 7
-38 -7 -21 -17 -21 -19 -3 -17 11 0 17 5 14 10 -3 5 9 6 26 4 29 -5 30 -4 20
16 -9 18 -9 20 2 9 17 -16 30 -16 23 1 -2 7 4 13 16 14 11 1 20 -3 20 -8 0 -6
-4 -7 -10 -4 -11 7 -14 -8 -3 -18 9 -10 34 13 27 25 -4 6 3 5 15 -1 16 -9 26
-9 42 0 15 8 19 8 15 0 -4 -6 -2 -11 3 -11 6 0 11 -4 11 -8 0 -5 -15 -8 -34
-8 -19 0 -32 4 -30 8 3 5 1 8 -5 8 -5 0 -13 -4 -16 -10 -6 -10 8 -14 34 -10
13 2 13 -1 0 -17 -12 -16 -12 -17 2 -6 9 7 19 10 22 6 4 -3 7 -2 7 4 0 5 14 9
30 9 17 0 30 -4 30 -8 0 -5 5 -6 11 -2 8 4 7 9 -2 15 -7 4 -16 6 -21 3 -4 -2
-12 6 -18 18 -9 20 -9 21 2 7 7 -9 21 -15 31 -13 9 1 17 -2 17 -7 0 -5 7 -9
17 -9 14 0 14 2 -2 20 -10 11 -13 20 -7 20 7 0 12 -5 12 -11 0 -8 6 -7 17 2
15 12 16 12 8 -1 -5 -8 -11 -24 -12 -35 -2 -13 5 -7 18 15 12 21 17 26 14 13
-4 -14 -2 -23 4 -23 6 0 11 7 11 15 0 8 4 15 8 15 4 0 8 -9 8 -19 0 -11 -4
-18 -7 -15 -4 2 -10 0 -14 -5 -5 -9 3 -9 45 1 9 2 14 -3 12 -11 -3 -12 0 -12
12 -1 9 7 16 9 16 4 0 -4 5 -3 12 4 21 21 32 13 12 -10 l-19 -23 24 20 c26 22
30 23 42 3 6 -8 9 -9 9 -1 0 15 29 10 41 -8 5 -8 9 -9 9 -3 0 5 -5 15 -12 22
-9 9 -9 12 3 12 9 0 21 -10 28 -22 7 -15 10 -16 6 -4 -4 14 -1 17 11 12 10 -4
14 -2 11 6 -2 7 -12 12 -22 10 -14 -3 -15 -1 -4 11 9 9 16 11 20 5 4 -7 9 -6
13 0 4 6 13 9 21 6 8 -4 12 -11 9 -16 -4 -6 -9 -6 -14 2 -5 9 -9 9 -14 1 -4
-6 -2 -11 4 -11 7 0 8 -6 1 -18 -7 -14 -6 -19 4 -19 8 0 11 7 7 16 -4 12 0 11
19 -4 l24 -20 -19 23 c-17 19 -17 22 -3 22 10 0 14 6 11 14 -3 8 -1 17 5 21 7
4 8 0 5 -10 -5 -11 0 -18 15 -22 11 -3 18 -9 15 -15 -3 -5 -12 -4 -20 3 -8 7
-14 7 -14 1 0 -5 7 -13 16 -16 8 -3 12 -11 8 -17 -4 -8 -3 -9 5 -5 6 4 9 12 6
17 -4 5 1 12 9 15 12 5 13 11 5 27 -9 19 -8 20 3 7 14 -17 32 -20 44 -8 14 14
36 9 30 -7 -18 -44 -17 -48 2 -24 12 15 20 36 17 48 -2 12 0 19 5 16 9 -5 7
-37 -5 -70 -6 -18 -5 -18 5 -2 6 9 16 17 22 17 7 0 7 -5 -1 -14 -9 -11 -9 -16
0 -22 8 -4 9 -3 5 4 -4 6 2 17 13 23 11 7 17 19 13 28 -4 11 -1 13 14 7 38
-15 56 -16 51 -1 -7 16 20 28 29 13 4 -7 3 -8 -4 -4 -7 4 -12 1 -12 -9 0 -11
5 -15 14 -12 10 4 13 1 9 -8 -3 -8 -10 -12 -17 -8 -19 12 -33 11 -33 -2 0 -7
8 -12 19 -10 10 2 18 0 18 -6 0 -5 8 -1 18 9 10 9 18 22 17 27 -1 6 0 7 2 3 3
-5 12 -8 21 -8 14 -1 14 -3 -3 -13 -24 -14 -32 -39 -10 -31 8 4 12 11 8 17 -4
6 0 8 11 4 10 -4 15 -3 11 3 -3 6 -2 10 4 10 5 0 15 -8 20 -17 8 -14 10 -15
11 -3 0 13 1 13 10 0 6 -10 10 -11 10 -2 0 6 5 12 11 12 5 0 7 -5 3 -11 -4 -7
1 -7 16 1 18 10 24 9 32 -1 8 -11 9 -10 5 3 -3 9 1 19 9 22 21 8 31 7 18 -2
-8 -5 -5 -13 9 -27 20 -20 20 -20 8 2 -9 18 -9 23 0 23 8 0 8 4 -1 15 -9 10
-9 15 -1 15 6 0 11 -4 11 -10 0 -5 7 -10 16 -10 8 0 12 4 9 10 -3 5 -1 10 5
10 7 0 10 -7 6 -15 -8 -23 11 -18 28 7 21 29 21 15 0 -16 -10 -17 -12 -26 -4
-31 6 -3 9 -3 8 2 -2 4 5 19 15 33 9 13 17 19 17 12 0 -9 8 -11 23 -7 19 5 20
4 4 -5 -9 -6 -22 -8 -29 -4 -7 4 -8 3 -4 -4 4 -7 2 -12 -3 -12 -6 0 -11 -8
-10 -17 0 -11 3 -13 6 -5 2 6 10 9 15 6 7 -5 8 -2 3 6 -6 10 -4 12 9 7 11 -5
15 -3 10 5 -5 8 -2 9 10 5 10 -4 20 -7 23 -7 3 0 -1 -8 -8 -17 -12 -16 -12
-17 2 -6 9 7 20 9 25 5 4 -4 3 0 -4 9 -6 9 -8 20 -4 24 4 5 1 5 -5 1 -9 -5
-11 -2 -6 10 5 13 8 14 11 4 3 -9 9 -5 19 11 l14 24 -6 -25 c-6 -23 -5 -24 8
-7 13 16 15 16 21 2 3 -9 11 -13 16 -10 8 5 7 12 -2 23 -7 10 -1 7 13 -5 14
-13 32 -23 40 -23 9 0 6 7 -9 18 -22 17 -22 18 -3 18 11 0 18 -2 16 -4 -6 -6
19 -30 27 -26 4 2 9 0 13 -5 3 -6 -3 -8 -15 -6 -21 4 -28 -9 -10 -20 6 -3 10
-2 10 4 0 14 30 7 41 -10 8 -10 9 -8 4 9 -5 18 -2 22 16 22 12 0 30 7 40 16
16 14 17 14 15 -3 -2 -10 -9 -18 -16 -18 -17 0 -24 -21 -11 -30 7 -4 8 0 4 11
-4 11 -3 15 5 10 6 -3 14 -1 18 5 5 8 13 4 26 -12 14 -18 17 -20 11 -5 -4 13
-3 17 5 12 6 -3 14 -2 17 4 4 6 1 9 -6 8 -6 -2 -14 4 -16 12 -4 12 -3 12 5 2
5 -8 13 -13 18 -11 5 1 15 -9 22 -22 13 -23 14 -23 9 -2 -4 16 0 23 10 23 8 0
11 -5 7 -12 -4 -7 3 -4 16 7 13 11 21 15 17 10 -3 -6 -2 -17 4 -25 6 -11 9
-12 9 -2 0 7 5 10 12 6 7 -4 8 -3 4 4 -4 7 -2 12 4 12 6 0 8 5 5 11 -5 6 -12
4 -21 -8 -13 -16 -13 -15 -3 9 11 25 13 26 24 11 7 -10 11 -23 8 -30 -3 -7 3
-11 16 -10 12 1 21 4 21 7 0 3 9 6 20 7 11 1 18 -2 15 -7 -6 -9 28 -6 45 5 6
3 10 0 10 -7 0 -10 2 -10 9 0 4 8 11 12 15 10 4 -1 13 8 20 21 10 19 14 20 19
8 4 -10 13 -13 26 -10 12 3 18 10 15 15 -3 5 -12 7 -20 4 -8 -3 -11 0 -7 10 5
12 11 10 32 -10 28 -27 48 -35 34 -13 -11 18 -12 36 -3 42 5 3 7 -3 5 -15 -2
-11 0 -22 6 -25 5 -4 9 -13 9 -22 0 -14 -3 -14 -25 1 -14 9 -25 13 -25 8 0
-12 -32 -11 -47 1 -9 6 -13 6 -13 -2 0 -6 5 -11 11 -11 5 0 8 -4 5 -8 -3 -5 1
-9 9 -9 8 0 15 4 15 8 0 9 42 5 59 -5 8 -5 14 0 18 14 4 16 8 18 14 8 7 -10 9
-11 9 0 0 7 4 11 9 7 5 -3 12 -1 16 5 4 6 10 8 15 5 4 -3 7 3 5 12 -2 10 -4
23 -5 28 0 6 -7 2 -14 -7 -7 -10 -17 -14 -21 -10 -5 4 -5 1 0 -7 6 -10 4 -12
-5 -6 -8 5 -11 4 -7 -2 3 -5 0 -10 -8 -10 -20 0 -19 13 3 22 16 7 15 8 -3 16
-17 7 -15 8 10 6 17 -1 30 3 30 10 0 6 4 15 9 20 5 5 6 3 2 -4 -4 -7 -3 -13 3
-13 5 0 14 -12 20 -27 l11 -28 -5 28 c-3 17 -1 27 6 27 7 0 -1 10 -17 23 -16
12 -32 21 -37 19 -5 -1 -6 2 -2 8 5 8 11 8 19 1 7 -6 17 -7 21 -3 5 4 5 2 2
-4 -9 -15 20 -27 29 -12 4 7 3 8 -4 4 -13 -8 -15 4 -6 28 3 9 10 13 15 10 5
-3 6 2 3 10 -3 8 -12 17 -20 20 -16 6 -20 46 -4 46 5 0 7 -6 4 -14 -3 -7 1
-16 9 -19 10 -4 13 4 12 32 -1 20 3 45 8 56 5 11 6 17 2 13 -5 -4 -14 -3 -21
3 -15 12 -37 3 -29 -12 4 -5 1 -9 -4 -9 -13 0 -14 10 -2 29 5 8 18 12 29 9 14
-4 19 -2 15 7 -3 8 -15 12 -31 9 -20 -3 -23 -2 -12 5 8 5 18 7 22 5 4 -3 8 0
8 6 0 6 5 8 11 4 8 -5 8 -1 0 14 -13 24 -14 35 -3 28 4 -2 8 4 9 14 1 11 -2
22 -8 25 -5 4 -9 11 -9 18 0 8 3 8 12 -1 20 -20 29 -14 11 8 -9 10 -18 26 -20
35 -2 8 -4 22 -6 31 -2 8 -10 20 -18 25 -11 7 -10 9 6 9 17 0 18 2 5 11 -11 8
-12 10 -1 7 8 -2 15 -17 17 -32 2 -16 6 -31 9 -35 4 -3 6 3 5 14 -4 36 0 46
13 39 7 -4 9 -3 4 2 -5 5 -13 10 -18 10 -22 3 -23 5 -10 13 11 7 10 14 -5 37
l-18 29 24 -20 25 -20 -15 20 c-21 29 -47 54 -52 50 -2 -2 -4 5 -5 16 -2 19
-1 18 17 -3 11 -13 19 -18 20 -11 0 6 -5 15 -10 18 -6 4 -8 11 -4 16 3 5 10 7
15 4 5 -4 9 -2 9 4 0 5 -6 14 -12 18 -7 4 -19 16 -27 25 -12 16 -10 19 10 27
13 5 17 10 9 11 -12 0 -13 2 -1 9 11 7 10 14 -4 37 l-17 29 21 -25 c23 -28 29
-15 7 16 -12 16 -12 22 1 45 10 17 22 25 32 22 12 -4 13 -3 3 5 -11 7 -11 10
2 15 9 4 16 11 16 17 0 6 -7 4 -16 -4 -8 -9 -22 -16 -30 -16 -9 0 -12 -5 -8
-13 4 -6 3 -8 -1 -4 -13 11 -15 36 -4 43 6 3 3 17 -7 32 -13 20 -13 24 -3 15
13 -10 18 -7 34 19 10 17 13 28 6 24 -17 -11 -13 10 5 28 8 9 11 16 5 16 -6 0
-11 5 -11 11 0 5 4 8 8 5 5 -3 9 1 9 9 0 8 -4 12 -9 9 -4 -3 -8 0 -8 5 0 6 6
11 13 11 9 0 8 3 -2 9 -9 6 -10 10 -2 14 7 4 8 5 1 4 -7 -2 -11 -7 -11 -12 0
-6 -8 -19 -17 -29 -16 -18 -16 -19 1 -13 15 6 16 4 7 -13 -6 -11 -8 -20 -4
-20 3 0 2 -6 -5 -13 -7 -10 -7 -17 0 -24 14 -14 -3 -24 -21 -12 -10 5 -10 9
-3 9 6 0 10 9 8 20 -2 11 1 23 7 26 7 4 2 14 -13 26 -14 10 -17 16 -7 12 13
-4 15 -1 11 15 -3 11 -10 18 -16 14 -6 -3 -7 -1 -3 6 9 14 26 5 26 -15 0 -8 4
-13 10 -9 5 3 7 11 4 18 -2 7 5 23 16 35 23 24 16 30 -9 8 -12 -11 -21 -12
-31 -5 -13 10 -13 10 0 7 8 -2 25 6 37 19 12 13 18 23 13 23 -14 0 -12 27 3
33 10 4 10 6 0 6 -7 1 -13 6 -13 12 0 5 5 7 10 4 6 -3 10 -1 10 5 0 7 -7 9
-15 6 -9 -3 -18 1 -21 9 -5 11 -11 12 -27 4 -20 -9 -20 -9 -5 4 10 8 14 18 10
23 -4 5 3 1 15 -9 21 -18 22 -18 33 5 10 21 10 21 -3 5 -13 -15 -15 -16 -21
-2 -3 8 -2 15 2 15 5 0 17 7 28 15 19 15 19 15 0 8 -16 -5 -18 -3 -13 12 6 15
5 16 -8 5 -13 -11 -13 -15 -3 -21 10 -7 9 -9 -3 -9 -9 0 -20 7 -23 16 -3 8 -2
12 4 9 6 -3 10 -2 10 4 0 5 -3 11 -8 14 -4 2 -1 2 7 0 8 -2 11 2 7 12 -3 8 -9
22 -12 30 -3 8 -1 15 5 15 6 0 10 -3 9 -7 -2 -5 2 -9 7 -10 6 -1 9 5 7 14 -2
8 1 13 5 10 5 -3 9 5 9 18 0 24 -11 25 -11 2 -1 -14 -56 -10 -71 6 -8 8 32 1
46 -8 6 -3 10 -1 10 5 0 6 -7 13 -15 16 -16 6 -20 35 -7 48 10 11 9 30 -2 38
-6 4 -5 12 3 21 8 10 9 17 1 22 -13 8 -13 25 1 25 5 0 8 -4 4 -9 -8 -15 13
-23 31 -13 11 6 13 11 5 16 -6 4 -11 2 -11 -3 0 -6 -4 -11 -8 -11 -5 0 -9 7
-9 15 0 8 4 15 8 15 4 0 9 7 13 15 3 8 0 14 -6 12 -7 -1 -13 7 -15 18 -3 17
-2 18 7 5 9 -12 11 -12 8 -1 -2 8 -12 15 -22 17 -10 1 -21 6 -24 10 -4 4 1 4
11 1 9 -4 17 -2 17 5 0 7 4 7 14 -1 10 -8 16 -9 21 -1 4 6 2 9 -4 8 -5 -2 -17
6 -25 17 l-16 20 7 -20 c3 -11 3 -17 -1 -14 -15 14 -14 47 1 45 17 -1 26 31
15 48 -4 6 -7 19 -7 29 0 10 -7 22 -15 27 -13 8 -13 11 -1 22 10 10 12 10 7 1
-4 -7 -2 -13 4 -13 7 0 10 6 7 13 -2 6 -12 11 -21 11 -9 -1 -16 2 -16 7 0 5 9
9 20 9 11 0 20 5 20 11 0 5 -4 7 -10 4 -6 -3 -7 1 -4 9 3 9 11 13 16 10 6 -4
5 2 -1 14 -14 27 -14 35 2 26 9 -6 9 -4 -1 8 -9 12 -10 18 -2 23 8 5 8 10 0
20 -8 9 -8 15 0 20 7 4 7 12 0 26 -6 10 -8 19 -4 19 3 0 1 6 -5 13 -6 8 -8 17
-5 20 3 3 2 12 -2 19 -13 21 -14 41 -1 57 10 12 8 13 -12 6 -17 -5 -21 -4 -16
5 4 6 17 10 29 8 16 -3 22 1 22 13 0 10 -4 16 -7 13 -4 -2 -10 0 -14 6 -3 5 0
10 7 10 8 0 6 5 -4 11 -10 5 -18 15 -18 21 0 6 7 5 18 -3 15 -13 16 -12 3 3
-7 10 -17 16 -21 13 -5 -3 -11 -1 -15 5 -4 6 -10 8 -15 5 -5 -3 -11 -1 -15 5
-3 5 2 10 12 11 16 0 16 1 -2 8 -27 11 -37 4 -25 -19 5 -10 10 -22 10 -27 -1
-4 -7 3 -15 17 -14 27 -23 29 -35 9 -5 -7 -15 -9 -26 -4 -11 5 -22 7 -26 7 -5
-1 -8 2 -8 8 0 5 5 10 10 10 6 0 10 7 10 15 0 8 -4 15 -10 15 -13 0 -31 -36
-22 -45 4 -4 -3 -2 -15 6 -12 7 -19 17 -16 22 3 5 9 3 14 -4 5 -8 9 -9 9 -4
-1 6 -8 19 -17 30 -11 15 -14 15 -10 3 3 -9 -2 -23 -12 -32 -18 -16 -31 -12
-31 8 0 6 4 5 9 -2 7 -11 9 -11 14 1 4 10 -2 13 -21 12 -15 0 -34 6 -42 15 -8
8 -12 11 -8 6 19 -24 -6 -34 -25 -11 -5 6 -7 4 -4 -5 2 -8 12 -15 23 -14 10 0
28 -8 39 -19 20 -20 20 -20 -3 -8 -13 7 -33 15 -45 17 -25 6 -49 12 -57 14 -3
1 4 5 15 10 17 8 17 9 -7 7 -15 -1 -25 -4 -22 -8 8 -14 -28 -41 -39 -30 -7 7
-18 2 -34 -15 -12 -14 -23 -22 -23 -18 0 4 7 16 17 26 9 10 11 18 5 18 -6 0
-14 -5 -17 -10 -4 -6 -12 -10 -18 -9 -28 3 -36 -2 -30 -18 3 -10 3 -15 -1 -11
-4 3 -8 12 -10 20 -1 7 -5 18 -8 24 -4 6 -1 11 7 11 8 0 12 -4 10 -7 -3 -4 6
-7 20 -7 14 0 22 3 19 8 -3 5 -11 9 -18 9 -7 0 -18 10 -25 23 l-11 22 6 -23
c4 -16 1 -22 -8 -20 -7 2 -16 7 -19 11 -7 9 -39 -2 -39 -13 0 -5 9 -7 19 -5
11 2 22 -3 25 -11 4 -11 2 -12 -13 -5 -10 6 -22 7 -25 3 -4 -4 -12 1 -17 10
-6 11 -16 15 -26 11 -12 -5 -14 -3 -8 7 6 9 4 11 -4 6 -7 -5 -10 -14 -8 -20 3
-7 -5 -18 -16 -25 -18 -11 -20 -11 -9 0 14 15 16 29 3 29 -5 0 -13 -10 -17
-22 -5 -18 -8 -19 -15 -5 -6 9 -17 14 -27 11 -14 -5 -14 -4 -2 4 8 6 17 9 21
6 14 -8 22 17 10 29 -9 9 -11 7 -5 -8 6 -16 5 -18 -7 -7 -7 6 -18 12 -24 12
-5 0 -3 -5 5 -10 13 -8 13 -10 -2 -10 -9 0 -18 5 -20 11 -3 9 -10 9 -26 0 -19
-10 -23 -9 -29 4 -5 13 -7 14 -14 3 -14 -21 -10 -36 9 -40 14 -3 13 -5 -6 -10
-12 -3 -20 -2 -16 3 3 5 0 9 -5 9 -6 0 -10 5 -8 12 1 7 -4 13 -10 14 -27 3
-28 5 -13 14 9 6 10 10 3 10 -6 0 -15 -5 -18 -10 -4 -6 -11 -8 -16 -5 -5 4 -9
2 -9 -4 0 -12 -72 -10 -81 3 -4 4 -16 3 -27 -3 -17 -9 -23 -8 -31 6 -6 11 -11
13 -11 5 0 -7 -5 -10 -10 -7 -6 4 -7 11 -4 17 4 7 2 8 -5 4 -9 -6 -9 -11 0
-22 10 -12 8 -14 -12 -10 -13 2 -30 -1 -37 -7 -7 -5 -16 -7 -19 -3 -4 4 -13
-4 -20 -16 l-14 -23 6 25 c6 24 5 24 -9 6 -14 -18 -15 -18 -13 3 1 19 6 21 34
16 21 -3 33 -1 33 7 0 6 -3 8 -7 5 -3 -4 -12 1 -20 11 -12 15 -12 15 -7 0 4
-13 1 -15 -15 -11 -12 3 -23 0 -26 -8 -5 -15 -53 -18 -73 -5 -7 4 -10 12 -7
17 4 5 -3 5 -17 0 -16 -6 -23 -16 -23 -34 1 -14 -3 -23 -7 -21 -4 3 -8 12 -8
20 0 8 -5 14 -11 14 -5 0 -8 4 -4 9 3 6 -4 8 -15 6 -11 -2 -20 2 -20 8 0 9 -2
9 -8 1 -4 -6 -15 -10 -25 -8 -9 1 -15 -1 -12 -5 2 -4 -9 -8 -25 -8 -25 0 -28
3 -17 15 8 11 4 10 -15 -2 -22 -14 -28 -15 -28 -5 -1 9 -4 8 -11 -4 -6 -9 -14
-15 -20 -12 -5 4 -9 -1 -9 -9 0 -8 -4 -18 -10 -21 -15 -10 1 28 19 44 15 13
15 13 0 8 -9 -3 -22 0 -28 6 -8 8 -14 8 -23 -2 -11 -10 -9 -11 7 -5 17 7 18 6
7 -8 -7 -9 -21 -14 -31 -11 -10 3 -22 -1 -27 -8 -5 -8 -3 -11 8 -7 8 4 15 0
15 -7 0 -11 -5 -12 -26 -1 -28 13 -61 11 -61 -5 0 -5 -5 -9 -10 -9 -6 0 -6 7
1 18 7 12 21 18 35 16 28 -3 41 13 25 29 -9 9 -10 8 -5 -7 7 -18 6 -18 -20 -1
-15 10 -26 14 -25 9 4 -23 -3 -26 -22 -8 -11 10 -20 14 -19 9 5 -22 -1 -27
-15 -15 -15 12 -17 10 -19 -20 -1 -8 -8 -15 -16 -15 -8 0 -22 -5 -30 -10 -12
-7 -13 -6 -3 7 7 8 10 18 6 21 -3 4 -1 7 5 7 7 0 12 -4 12 -10 0 -5 5 -10 11
-10 8 0 8 5 -1 15 -18 21 -29 19 -42 -10 -8 -19 -14 -22 -20 -13 -4 7 -8 18
-8 23 0 6 5 3 10 -5 5 -8 10 -10 10 -5 -1 6 -8 19 -17 30 -10 13 -14 15 -10 4
6 -18 1 -27 -27 -49 -12 -9 -17 -10 -12 -2 4 6 2 13 -3 13 -26 3 -30 4 -36 10
-3 4 5 6 17 5 13 0 26 -5 29 -9 3 -5 9 -2 12 6 4 10 -2 13 -21 12 -15 0 -34 6
-42 15 -8 8 -12 11 -7 6 11 -15 8 -23 -8 -23 -8 0 -15 5 -15 10 0 6 -2 8 -5 5
-3 -3 -2 -13 1 -22 4 -11 9 -13 13 -7 4 6 12 2 19 -9 7 -12 8 -20 2 -20 -5 0
-10 4 -10 9 0 10 -39 8 -61 -3 -8 -4 -6 -1 4 7 18 15 23 28 10 26 -20 -3 -34
2 -29 10 4 5 -2 8 -11 6 -10 -2 -21 -4 -25 -4 -5 -1 -8 -5 -8 -10 0 -6 9 -8
20 -6 23 4 32 -6 21 -24 -6 -10 -10 -9 -15 4 -6 16 -8 16 -34 -1 -24 -16 -26
-16 -13 -1 8 10 11 20 8 24 -4 3 -2 12 5 20 6 7 9 16 6 19 -3 3 -8 -2 -12 -11z
m-53 -32 c-5 -14 -8 -15 -45 -16 -13 -1 -26 -6 -30 -11 -4 -6 -6 -1 -6 11 2
16 7 20 24 17 13 -2 25 0 28 4 9 14 35 10 29 -5z m412 7 c3 6 11 8 16 4 14 -9
-9 -34 -26 -28 -7 3 -16 13 -19 21 -5 13 -4 14 8 4 10 -8 16 -9 21 -1z m168
-5 c-3 -9 -8 -14 -10 -11 -3 3 -2 9 2 15 9 16 15 13 8 -4z m207 -2 c0 -7 5
-13 12 -13 6 0 8 -3 5 -6 -4 -4 -13 -1 -22 6 -12 10 -15 10 -15 -1 0 -8 -6 -5
-16 7 -15 19 -15 19 -9 -2 3 -14 1 -21 -9 -21 -9 0 -14 3 -12 6 2 3 5 13 8 22
7 18 58 21 58 2z m81 3 c-1 -16 -28 -15 -28 1 0 7 7 13 14 11 8 -2 14 -7 14
-12z m237 -14 c-7 -10 -14 -19 -15 -21 -3 -4 2 28 6 47 1 2 6 0 11 -3 8 -5 7
-12 -2 -23z m62 8 c10 -19 9 -19 -15 -8 -19 8 -22 14 -13 20 17 10 16 11 28
-12z m114 -1 c-3 -5 -10 -7 -15 -4 -5 3 -6 -1 -3 -9 3 -9 2 -16 -3 -16 -13 0
-12 33 1 42 13 9 28 0 20 -13z m114 -10 c-10 -5 -15 -16 -12 -24 4 -8 2 -15
-3 -15 -13 0 -12 53 1 62 6 4 15 3 21 -3 7 -7 4 -13 -7 -20z m-708 0 c15 -12
18 -17 7 -13 -14 5 -16 2 -11 -12 4 -11 4 -16 0 -12 -4 3 -9 14 -10 24 -2 10
-9 20 -16 22 -7 3 -10 0 -6 -7 5 -7 1 -9 -8 -5 -21 8 -20 19 2 21 10 1 29 -7
42 -18z m25 11 c3 -6 -1 -7 -9 -4 -18 7 -21 14 -7 14 6 0 13 -4 16 -10z m332
-12 c-3 -8 -6 -5 -6 6 -1 11 2 17 5 13 3 -3 4 -12 1 -19z m26 -3 c-7 -21 -12
-19 -10 4 0 11 5 18 9 15 4 -3 5 -11 1 -19z m162 7 c-3 -3 -11 0 -18 7 -9 10
-8 11 6 5 10 -3 15 -9 12 -12z m306 -9 c-12 -20 -14 -14 -5 12 4 9 9 14 11 11
3 -2 0 -13 -6 -23z m281 12 c3 0 8 -2 10 -5 2 -3 1 -4 -1 -3 -2 2 -11 -3 -19
-10 -13 -9 -14 -9 -8 1 4 6 2 12 -3 12 -6 0 -11 5 -11 11 0 6 5 7 13 2 6 -4
15 -8 19 -8z m-882 -5 c8 -5 11 -10 5 -10 -5 0 -17 5 -25 10 -8 5 -10 10 -5
10 6 0 17 -5 25 -10z m-376 -9 c3 -5 -2 -15 -12 -22 -15 -12 -16 -12 -5 2 7 9
10 19 6 22 -3 4 -4 7 0 7 3 0 8 -4 11 -9z m61 -1 c3 -5 1 -10 -4 -10 -6 0 -11
5 -11 10 0 6 2 10 4 10 3 0 8 -4 11 -10z m280 0 c4 -6 -1 -7 -11 -3 -11 4 -15
3 -10 -5 3 -6 2 -13 -3 -16 -7 -5 -8 11 -2 32 2 6 21 1 26 -8z m122 -5 c0 -8
-4 -12 -9 -9 -4 3 -8 9 -8 15 0 5 4 9 8 9 5 0 9 -7 9 -15z m118 5 c4 -6 -1 -7
-11 -3 -11 4 -15 3 -10 -5 3 -6 2 -13 -3 -16 -7 -5 -8 11 -2 32 2 6 21 1 26
-8z m159 2 c3 -5 -1 -9 -9 -9 -8 0 -12 4 -9 9 3 4 7 8 9 8 2 0 6 -4 9 -8z
m-1394 -6 c0 -2 -8 -10 -17 -17 -16 -13 -17 -12 -4 4 13 16 21 21 21 13z m95
-6 c-3 -5 -12 -10 -18 -10 -7 0 -6 4 3 10 19 12 23 12 15 0z m85 5 c0 -2 -10
-9 -22 -15 -22 -11 -22 -10 -4 4 21 17 26 19 26 11z m200 1 c0 -2 -8 -10 -17
-17 -16 -13 -17 -12 -4 4 13 16 21 21 21 13z m97 -11 c0 -8 -4 -12 -9 -9 -5 3
-6 10 -3 15 9 13 12 11 12 -6z m96 0 c-3 -9 -8 -14 -10 -11 -3 3 -2 9 2 15 9
16 15 13 8 -4z m960 0 c-3 -9 -8 -14 -10 -11 -3 3 -2 9 2 15 9 16 15 13 8 -4z
m128 -2 c13 -16 12 -17 -3 -4 -10 7 -18 15 -18 17 0 8 8 3 21 -13z m299 13 c0
-3 -4 -8 -10 -11 -5 -3 -10 -1 -10 4 0 6 5 11 10 11 6 0 10 -2 10 -4z m-1689
-23 c13 -16 12 -17 -3 -4 -10 7 -18 15 -18 17 0 8 8 3 21 -13z m613 5 c-3 -4
-9 -8 -15 -8 -5 0 -9 4 -9 8 0 5 7 9 15 9 8 0 12 -4 9 -9z m426 6 c0 -8 -19
-13 -24 -6 -3 5 1 9 9 9 8 0 15 -2 15 -3z m-1350 -8 c0 -2 -8 -10 -17 -17 -16
-13 -17 -12 -4 4 13 16 21 21 21 13z m2211 -19 c-10 -9 -11 -8 -5 6 3 10 9 15
12 12 3 -3 0 -11 -7 -18z m74 3 c-3 -4 3 -11 12 -14 11 -5 13 -10 7 -14 -6 -4
-15 -15 -21 -26 -9 -16 -11 -17 -16 -2 -4 10 -3 15 2 12 5 -3 11 1 15 9 3 8
-2 18 -11 23 -9 5 -13 15 -9 21 4 6 12 9 17 5 5 -3 7 -9 4 -14z m30 -50 c3 -5
1 -10 -4 -10 -6 0 -11 5 -11 10 0 6 2 10 4 10 3 0 8 -4 11 -10z m-2411 -110
c-5 -5 -10 3 -11 18 -1 22 0 24 9 8 6 -10 6 -22 2 -26z m2383 34 c-3 -3 -12
-4 -19 -1 -8 3 -5 6 6 6 11 1 17 -2 13 -5z m-2407 -24 c0 -5 -5 -10 -11 -10
-5 0 -7 5 -4 10 3 6 8 10 11 10 2 0 4 -4 4 -10z m2418 -20 c-7 -10 -14 -18
-15 -16 -6 6 9 36 18 36 5 0 4 -9 -3 -20z m11 -31 c-11 -7 -11 -9 -1 -9 7 0
10 -4 7 -10 -3 -5 -1 -10 6 -10 8 0 8 -4 -2 -16 -10 -13 -10 -17 0 -24 9 -5
10 -9 2 -14 -6 -4 -9 -11 -6 -16 3 -5 1 -11 -4 -14 -5 -4 -12 -2 -15 3 -4 5
-3 12 2 14 6 5 8 54 2 82 -5 22 1 36 11 29 8 -4 7 -9 -2 -15z m-2400 -95 c-6
-8 -15 -12 -18 -8 -3 4 0 9 7 11 6 3 9 10 6 15 -4 7 -2 8 5 4 9 -6 9 -11 0
-22z m2378 10 c-3 -3 -12 -4 -19 -1 -8 3 -5 6 6 6 11 1 17 -2 13 -5z m-2391
-54 c0 -10 -4 -16 -8 -14 -4 3 -8 12 -8 20 0 8 -4 13 -8 10 -5 -3 -9 1 -9 8 0
11 5 11 17 4 8 -6 16 -18 16 -28z m2417 7 c4 3 7 1 7 -5 0 -21 -16 -21 -30 1
-12 19 -11 21 2 10 8 -7 18 -10 21 -6z m4 -132 c0 -8 -4 -12 -9 -9 -4 3 -8 0
-8 -7 0 -7 -2 -10 -5 -7 -7 7 5 38 14 38 4 0 8 -7 8 -15z m-37 -19 c0 -2 -8
-10 -17 -17 -16 -13 -17 -12 -4 4 13 16 21 21 21 13z m47 -35 c-1 -22 -33 -17
-42 7 -5 14 -4 15 6 5 18 -18 30 -16 22 4 -4 10 -2 14 5 9 6 -3 10 -15 9 -25z
m-2418 -17 c-6 -8 -15 -12 -18 -8 -3 4 0 9 7 11 6 3 9 10 6 15 -4 7 -2 8 5 4
9 -6 9 -11 0 -22z m4 -79 c-7 -21 -12 -19 -10 4 0 11 5 18 9 15 4 -3 5 -11 1
-19z m-23 -27 c0 -4 -4 -8 -8 -8 -7 0 -8 -25 -3 -73 1 -5 7 -5 14 -1 8 5 8 2
-2 -9 -7 -9 -11 -18 -7 -18 3 -1 10 -2 15 -3 5 0 12 -4 16 -8 4 -3 0 -5 -9 -4
-29 4 -40 25 -41 79 0 38 3 54 12 54 7 0 13 -4 13 -9z m2420 8 c0 -3 -4 -8
-10 -11 -5 -3 -10 -1 -10 4 0 6 5 11 10 11 6 0 10 -2 10 -4z m-2389 -23 c13
-16 12 -17 -3 -4 -10 7 -18 15 -18 17 0 8 8 3 21 -13z m2400 -16 c-13 -13 -26
-3 -16 12 3 6 11 8 17 5 6 -4 6 -10 -1 -17z m-2410 -14 c13 -16 12 -17 -3 -4
-10 7 -18 15 -18 17 0 8 8 3 21 -13z m2384 -33 c3 -5 1 -10 -4 -10 -6 0 -11 5
-11 10 0 6 2 10 4 10 3 0 8 -4 11 -10z m-2412 -64 c4 -10 1 -13 -9 -9 -7 3
-14 9 -14 14 0 14 17 10 23 -5z m2417 4 c0 -5 -2 -10 -4 -10 -3 0 -8 5 -11 10
-3 6 -1 10 4 10 6 0 11 -4 11 -10z m-2420 -34 c0 -2 -8 -10 -17 -17 -16 -13
-17 -12 -4 4 13 16 21 21 21 13z m31 -19 c-10 -9 -11 -8 -5 6 3 10 9 15 12 12
3 -3 0 -11 -7 -18z m2386 -62 c0 -8 -4 -12 -9 -9 -5 3 -6 10 -3 15 9 13 12 11
12 -6z m-2411 -11 c-16 -16 -12 -39 5 -29 5 4 9 2 9 -4 0 -5 -8 -9 -19 -8 -30
2 -19 56 12 57 5 0 1 -7 -7 -16z m2407 -89 c-3 -9 -8 -14 -10 -11 -3 3 -2 9 2
15 9 16 15 13 8 -4z m-2387 -27 c4 -7 3 -8 -4 -4 -7 4 -12 2 -12 -5 0 -7 -3
-10 -6 -6 -6 5 3 27 11 27 2 0 7 -5 11 -12z m2392 -48 c-7 -10 -14 -17 -17
-15 -4 4 18 35 25 35 2 0 -1 -9 -8 -20z m25 -7 c-5 -11 -3 -14 6 -8 10 6 11 3
2 -13 -14 -26 -14 -35 -1 -27 6 3 10 4 10 1 0 -16 -21 -13 -30 5 -8 15 -9 19
-1 15 6 -4 11 -2 11 3 0 6 -5 11 -11 11 -8 0 -8 5 1 15 16 20 21 19 13 -2z
m-2453 -3 c-13 -8 -12 -10 5 -11 17 -1 17 -2 2 -6 -9 -2 -15 -9 -11 -14 3 -5
10 -7 15 -4 5 4 9 2 9 -4 0 -5 -6 -12 -12 -14 -10 -4 -10 -8 0 -15 11 -7 11
-10 -2 -15 -9 -4 -15 -3 -15 1 4 22 -2 32 -13 26 -10 -6 -10 -5 -1 8 7 8 10
18 7 21 -10 10 4 37 18 37 9 0 8 -3 -2 -10z m44 -30 c-6 -6 -10 -3 -10 10 0
13 4 16 10 10 7 -7 7 -13 0 -20z m-17 -74 c0 -8 -8 -11 -20 -8 -14 4 -16 7 -5
13 19 12 25 11 25 -5z m-18 -42 c-6 -7 -15 -11 -21 -8 -5 3 -4 12 3 20 6 7 15
11 21 8 5 -3 4 -12 -3 -20z m35 -16 c-3 -5 -10 -5 -16 -2 -8 5 -9 1 -4 -12 5
-14 4 -16 -5 -7 -14 14 -6 30 15 30 8 0 13 -4 10 -9z m-36 -33 c9 -17 7 -21
-8 -21 -10 0 -16 6 -15 16 2 8 4 19 4 24 1 11 5 7 19 -19z m22 -45 c0 -5 -2
-10 -4 -10 -3 0 -8 5 -11 10 -3 6 -1 10 4 10 6 0 11 -4 11 -10z m-20 -20 c0
-5 -2 -10 -4 -10 -3 0 -8 5 -11 10 -3 6 -1 10 4 10 6 0 11 -4 11 -10z m31 -27
c13 -16 12 -17 -3 -4 -10 7 -18 15 -18 17 0 8 8 3 21 -13z m-40 -17 c-10 -11
-7 -17 11 -30 21 -15 21 -16 3 -13 -39 6 -46 16 -29 43 9 13 19 22 22 20 3 -3
-1 -12 -7 -20z m49 -11 c0 -7 -30 -13 -34 -7 -3 4 4 9 15 9 10 1 19 0 19 -2z
m2372 -81 c-6 -12 -9 -7 -9 16 0 23 3 28 9 16 5 -9 5 -23 0 -32z m-2410 -63
c11 6 22 8 26 5 3 -3 0 -6 -7 -6 -7 0 -9 -4 -6 -10 4 -6 -1 -7 -11 -3 -12 4
-15 3 -10 -5 4 -7 2 -12 -3 -12 -6 0 -11 2 -11 4 0 2 -2 10 -3 18 -2 7 -2 10
0 6 3 -5 14 -3 25 3z m2418 -199 c0 -5 -7 -9 -15 -9 -8 0 -12 4 -9 9 3 4 9 8
15 8 5 0 9 -4 9 -8z m22 -46 c7 4 8 2 4 -4 -12 -20 -26 -13 -25 11 1 17 2 18
6 4 2 -9 9 -14 15 -11z m-2402 -10 c0 -2 -7 -7 -16 -10 -8 -3 -12 -2 -9 4 6
10 25 14 25 6z m2354 -64 c3 -5 -1 -9 -9 -9 -8 0 -12 4 -9 9 3 4 7 8 9 8 2 0
6 -4 9 -8z m39 -33 c5 -3 2 -9 -5 -12 -9 -3 -14 3 -15 15 -1 11 1 16 5 12 4
-5 11 -12 15 -15z m3 -35 c-3 -8 -2 -24 4 -34 11 -20 -13 -50 -24 -31 -4 5 -2
12 3 16 6 3 8 12 4 20 -6 16 2 45 13 45 3 0 3 -7 0 -16z m-35 -31 c13 -16 12
-17 -3 -4 -10 7 -18 15 -18 17 0 8 8 3 21 -13z m-2360 -20 c13 -16 12 -17 -3
-4 -10 7 -18 15 -18 17 0 8 8 3 21 -13z m2379 -42 c0 -6 -4 -12 -8 -15 -5 -3
-9 1 -9 9 0 8 4 15 9 15 4 0 8 -4 8 -9z m-2380 -45 c0 -2 -8 -10 -17 -17 -16
-13 -17 -12 -4 4 13 16 21 21 21 13z m2406 -66 c0 -16 -3 -27 -8 -24 -5 3 -6
10 -3 15 4 5 -2 10 -12 10 -16 1 -16 2 -1 6 11 3 15 10 11 21 -4 10 -2 14 3 9
5 -5 9 -22 10 -37z m-31 -18 c-3 -3 -11 0 -18 7 -9 10 -8 11 6 5 10 -3 15 -9
12 -12z m-2409 -4 c5 4 6 3 2 -2 -4 -5 -2 -16 5 -24 10 -13 9 -14 -3 -7 -8 6
-19 10 -24 10 -5 0 -10 8 -12 18 -2 14 1 15 10 8 7 -6 17 -7 22 -3z m2401 -54
c-3 -3 -12 -4 -19 -1 -8 3 -5 6 6 6 11 1 17 -2 13 -5z m22 -30 c-6 -8 -17 -14
-23 -14 -6 0 -4 5 4 10 13 9 13 10 0 10 -13 0 -13 2 0 9 20 13 34 2 19 -15z
m-1591 -109 c-3 -3 -9 2 -12 12 -6 14 -5 15 5 6 7 -7 10 -15 7 -18z m602 21
c0 -2 -8 -10 -17 -17 -16 -13 -17 -12 -4 4 13 16 21 21 21 13z m-1305 -24 c-3
-3 -11 0 -18 7 -9 10 -8 11 6 5 10 -3 15 -9 12 -12z m1629 10 c3 -5 -1 -9 -9
-9 -8 0 -12 4 -9 9 3 4 7 8 9 8 2 0 6 -4 9 -8z m233 -12 c-1 -11 -5 -20 -9
-20 -3 0 -6 9 -5 20 1 11 5 20 9 20 3 0 6 -9 5 -20z m-66 -13 c-8 -8 -14 -7
-23 2 -11 10 -9 11 6 5 15 -6 17 -4 11 6 -6 9 -4 11 4 5 9 -5 10 -10 2 -18z
m469 19 c0 -2 -8 -10 -17 -17 -16 -13 -17 -12 -4 4 13 16 21 21 21 13z m-1733
-29 c-14 -22 -43 -31 -52 -17 -3 5 -13 7 -23 4 -9 -3 -4 2 11 11 24 14 31 14
45 3 13 -11 15 -11 10 3 -4 10 -1 16 8 16 12 0 12 -4 1 -20z m29 5 c-4 -13 -1
-19 9 -19 9 0 14 6 11 14 -4 10 -1 11 12 5 9 -5 24 -7 32 -5 8 2 6 -2 -5 -9
-23 -14 -63 -19 -70 -7 -5 8 4 39 12 39 2 0 2 -8 -1 -18z m384 14 c0 -2 -7 -7
-16 -10 -8 -3 -12 -2 -9 4 6 10 25 14 25 6z m278 -8 c-2 -7 3 -12 10 -10 19 3
14 -6 -13 -24 -20 -13 -28 -14 -40 -4 -9 7 -15 8 -15 2 0 -13 -23 -10 -41 5
-8 5 -21 12 -29 15 -10 3 -8 6 7 10 13 3 21 2 20 -4 -1 -6 8 -12 21 -14 16 -3
21 0 16 8 -5 7 -3 8 7 2 8 -5 25 -10 39 -11 23 -3 24 -2 7 11 -17 13 -15 17
11 25 1 1 1 -5 0 -11z m702 1 c0 -8 6 -7 17 2 11 10 14 10 9 2 -4 -7 -2 -13 3
-13 6 0 11 -5 11 -12 0 -6 -3 -8 -6 -5 -4 3 -16 2 -27 -4 -14 -8 -18 -8 -12 0
4 7 1 18 -5 26 -9 11 -9 15 -1 15 6 0 11 -5 11 -11z m64 -1 c-5 -7 10 -12 29
-9 13 2 7 -17 -7 -22 -8 -3 -21 4 -29 17 -13 19 -13 23 -2 23 8 0 12 -4 9 -9z
m77 -1 c-6 -8 -9 -16 -6 -19 3 -2 -1 -5 -8 -5 -8 0 -14 6 -14 13 0 7 4 11 8 8
4 -2 10 0 14 6 3 5 9 10 12 10 3 0 0 -6 -6 -13z m-381 -14 c0 -3 -6 -3 -14 0
-7 3 -19 0 -25 -6 -8 -8 -11 -8 -11 0 0 6 6 13 13 16 13 4 37 -2 37 -10z m63
-3 c3 -11 1 -18 -4 -14 -5 3 -9 12 -9 20 0 20 7 17 13 -6z m90 3 c3 -5 -5 -8
-18 -8 -13 0 -21 3 -18 8 2 4 10 7 18 7 8 0 16 -3 18 -7z"/>
<path d="M710 82 c0 -5 7 -9 15 -9 8 0 12 4 9 9 -3 4 -9 8 -15 8 -5 0 -9 -4
-9 -8z"/>
<path d="M1541 2560 c-9 -5 -4 -7 13 -7 29 0 32 2 13 10 -8 3 -20 2 -26 -3z"/>
<path d="M2336 2553 c-6 -14 -5 -15 5 -6 7 7 10 15 7 18 -3 3 -9 -2 -12 -12z"/>
<path d="M656 2551 c-4 -5 3 -7 14 -4 23 6 26 13 6 13 -8 0 -17 -4 -20 -9z"/>
<path d="M2061 2553 c-2 -22 3 -28 16 -25 7 2 13 -3 13 -10 0 -9 3 -9 10 2 5
8 10 20 10 25 0 6 -5 3 -10 -5 -7 -11 -10 -11 -10 -2 0 7 -4 11 -9 8 -5 -4
-12 0 -14 6 -4 10 -6 10 -6 1z"/>
<path d="M2001 2547 c2 -2 11 -8 20 -15 12 -9 16 -9 16 1 0 7 -9 14 -20 14
-11 1 -18 1 -16 0z"/>
<path d="M2427 2527 c4 -6 0 -8 -9 -4 -21 7 -56 -17 -39 -27 6 -4 18 -3 25 3
7 6 15 9 17 6 3 -2 10 4 16 14 9 14 8 18 -3 18 -7 0 -10 -5 -7 -10z"/>
<path d="M2506 2502 c-3 -5 1 -9 9 -9 8 0 12 4 9 9 -3 4 -7 8 -9 8 -2 0 -6 -4
-9 -8z"/>
<path d="M90 2476 c0 -2 7 -9 15 -16 9 -7 15 -8 15 -2 0 5 -7 12 -15 16 -8 3
-15 4 -15 2z"/>
<path d="M59 2409 c-15 -15 -15 -16 7 -16 25 0 29 5 16 23 -4 6 -13 4 -23 -7z"/>
<path d="M2533 2358 c-11 -18 -13 -39 -3 -33 5 3 10 -1 13 -7 2 -7 4 2 3 20
-1 36 -2 37 -13 20z"/>
<path d="M2553 2069 c-2 -23 3 -25 10 -4 4 8 3 16 -1 19 -4 3 -9 -4 -9 -15z"/>
<path d="M43 2015 c-3 -9 -3 -18 -1 -21 3 -3 8 4 11 16 6 23 -1 27 -10 5z"/>
<path d="M67 2013 c-11 -10 -8 -20 7 -26 8 -3 13 0 12 8 -3 19 -11 27 -19 18z"/>
<path d="M56 1961 c-3 -5 1 -14 8 -20 16 -13 32 2 21 19 -8 12 -22 13 -29 1z"/>
<path d="M40 1915 c-11 -13 -10 -14 4 -9 9 3 16 10 16 15 0 13 -6 11 -20 -6z"/>
<path d="M2550 1899 c0 -5 5 -7 10 -4 6 3 10 8 10 11 0 2 -4 4 -10 4 -5 0 -10
-5 -10 -11z"/>
<path d="M63 1885 c6 -7 15 -11 20 -8 13 8 7 19 -13 20 -16 1 -17 -1 -7 -12z"/>
<path d="M2527 1724 c-8 -8 1 -24 14 -24 5 0 9 7 9 15 0 15 -12 20 -23 9z"/>
<path d="M2532 1681 c1 -3 -2 -14 -7 -24 -4 -11 -3 -23 4 -30 16 -16 26 0 10
19 -12 15 -11 16 11 10 17 -5 21 -4 11 2 -7 5 -11 14 -8 19 3 5 0 10 -8 10 -8
0 -13 -3 -13 -6z"/>
<path d="M36 1493 c-6 -14 -5 -15 5 -6 7 7 10 15 7 18 -3 3 -9 -2 -12 -12z"/>
<path d="M60 1480 c0 -5 7 -10 16 -10 8 0 12 5 9 10 -3 6 -10 10 -16 10 -5 0
-9 -4 -9 -10z"/>
<path d="M50 1450 c-8 -5 -10 -10 -5 -10 6 0 17 5 25 10 8 5 11 10 5 10 -5 0
-17 -5 -25 -10z"/>
<path d="M35 1260 c-3 -5 -1 -10 4 -10 6 0 11 5 11 10 0 6 -2 10 -4 10 -3 0
-8 -4 -11 -10z"/>
<path d="M35 1140 c-3 -5 -1 -10 4 -10 6 0 11 5 11 10 0 6 -2 10 -4 10 -3 0
-8 -4 -11 -10z"/>
<path d="M2540 1095 c-7 -9 -10 -18 -7 -22 4 -3 2 -12 -4 -20 -9 -9 -8 -13 0
-13 6 0 11 5 11 11 0 5 4 8 8 5 4 -2 8 9 7 25 0 34 1 33 -15 14z"/>
<path d="M2532 984 c-9 -17 -9 -24 1 -32 7 -6 17 -8 23 -4 12 8 15 44 3 36 -4
-2 -9 2 -11 8 -3 8 -9 5 -16 -8z m23 -13 c3 -5 1 -12 -5 -16 -5 -3 -10 1 -10
9 0 18 6 21 15 7z"/>
<path d="M2542 898 c-5 -7 -8 -26 -6 -43 2 -24 1 -27 -7 -12 -6 9 -15 17 -22
17 -7 -1 3 -14 22 -30 33 -28 35 -58 4 -45 -13 4 -14 3 -4 -9 7 -8 10 -20 6
-26 -3 -5 -1 -10 4 -10 6 0 11 8 11 18 0 10 5 23 12 30 7 7 8 15 1 24 -5 7
-13 22 -16 33 -7 19 -7 19 7 1 14 -18 15 -18 13 2 0 11 -5 18 -9 16 -4 -3 -8
4 -8 15 0 10 6 22 13 24 7 4 8 6 1 6 -6 1 -16 -5 -22 -11z"/>
<path d="M51 680 c0 -9 5 -22 12 -29 10 -11 9 -13 -6 -8 -11 4 -16 3 -12 -4
11 -16 28 -5 32 22 2 17 0 20 -6 10 -7 -11 -10 -10 -14 5 -3 13 -5 14 -6 4z"/>
<path d="M75 619 c-4 -6 -5 -12 -2 -15 2 -3 7 2 10 11 7 17 1 20 -8 4z"/>
<path d="M2550 559 c0 -5 5 -7 10 -4 6 3 10 8 10 11 0 2 -4 4 -10 4 -5 0 -10
-5 -10 -11z"/>
<path d="M76 525 c-3 -8 -1 -15 4 -15 13 0 22 18 11 24 -5 3 -11 -1 -15 -9z"/>
<path d="M83 144 c-10 -9 -13 -13 -6 -9 14 7 36 -28 25 -41 -4 -5 2 -2 12 6
18 14 19 13 13 -2 -3 -10 -1 -20 5 -24 7 -5 8 -2 3 6 -5 8 -3 11 6 8 8 -3 13
-10 12 -15 -1 -5 15 -9 35 -8 20 0 44 -3 54 -7 11 -5 16 -3 14 7 -1 8 -6 18
-11 22 -4 4 -5 2 -1 -4 4 -7 3 -13 -3 -13 -5 0 -12 6 -14 13 -4 10 -6 10 -6 0
-1 -7 -6 -13 -11 -13 -6 0 -9 5 -8 12 2 7 -8 13 -25 13 -28 0 -61 30 -52 45
10 16 -24 18 -42 4z m37 -29 c0 -5 -5 -3 -10 5 -5 8 -10 20 -10 25 0 6 5 3 10
-5 5 -8 10 -19 10 -25z m74 -37 c-3 -4 -9 -8 -15 -8 -5 0 -9 4 -9 8 0 5 7 9
15 9 8 0 12 -4 9 -9z"/>
<path d="M376 73 c-3 -3 -6 -11 -6 -17 0 -6 5 -4 10 4 6 9 10 10 10 3 0 -6 9
-11 20 -10 17 1 19 12 2 12 -4 0 -12 3 -18 7 -6 4 -14 5 -18 1z"/>
<path d="M1065 70 c-4 -6 -12 -7 -18 -4 -8 5 -8 2 1 -7 10 -11 15 -10 29 4 10
10 12 17 6 17 -7 0 -15 -5 -18 -10z"/>
<path d="M1188 54 c6 -33 17 -38 18 -9 1 13 -4 26 -11 28 -8 4 -10 -3 -7 -19z"/>
<path d="M1716 71 c-4 -6 -12 -9 -17 -6 -14 9 -10 -8 7 -30 16 -20 16 -20 9 3
-8 26 2 29 22 5 7 -10 13 -13 12 -8 -3 24 2 28 14 10 13 -17 14 -16 11 6 -1
13 -3 26 -3 28 -1 2 -8 -2 -17 -10 -13 -10 -17 -10 -24 0 -5 9 -9 10 -14 2z"/>
<path d="M616 43 c-6 -14 -5 -15 5 -6 7 7 10 15 7 18 -3 3 -9 -2 -12 -12z"/>
<path d="M1516 45 c4 -8 8 -15 10 -15 2 0 4 7 4 15 0 8 -4 15 -10 15 -5 0 -7
-7 -4 -15z"/>
<path d="M1791 44 c0 -11 3 -14 6 -6 3 7 2 16 -1 19 -3 4 -6 -2 -5 -13z"/>
<path d="M2290 50 c-9 -6 -10 -10 -3 -10 6 0 15 5 18 10 8 12 4 12 -15 0z"/>
<path d="M1025 40 c3 -5 8 -10 11 -10 2 0 4 5 4 10 0 6 -5 10 -11 10 -5 0 -7
-4 -4 -10z"/>
<path d="M1171 34 c0 -11 3 -14 6 -6 3 7 2 16 -1 19 -3 4 -6 -2 -5 -13z"/>
</g>
</svg>
